# This file uses meters as units for non-parametric coordinates.

mtllib Flat plain .mtl
g default
v -802.203755 -49.999878 403.963760
v 1200.865099 -50.000000 403.963760
v -802.203755 50.000122 403.963760
v 1200.865099 50.000000 403.963760
v -802.203755 50.000122 -402.584049
v 1200.865099 50.000000 -402.584049
v -802.203755 -49.999878 -402.584049
v 1200.865099 -50.000000 -402.584049
v -802.203755 -49.999878 512.455100
v 1200.865099 -50.000000 512.455100
v 1200.865099 50.000000 512.455100
v -802.203755 50.000122 512.455100
v -802.203755 50.000122 -514.868104
v 1200.865099 50.000000 -514.868104
v 1200.865099 -50.000000 -514.868104
v -802.203755 -49.999878 -514.868104
v -802.203755 97.047592 -402.584049
v 1200.865099 97.047470 -402.584049
v 1200.865099 97.047470 -514.868104
v -802.203755 97.047592 -514.868104
v -802.203755 91.482971 403.963760
v 1200.865099 91.482849 403.963760
v -802.203755 91.482971 512.455100
v 1200.865099 91.482849 512.455100
vt 0.042419 0.549046
vt 0.945714 0.132120
vt 0.886814 0.961643
vt 0.760299 0.192592
vt 0.061289 0.089119
vt 0.910335 0.417259
vt 0.892482 0.628163
vt 0.751304 0.263619
vt 0.061289 0.027469
vt 0.945704 0.093619
vt 0.910205 0.093615
vt 0.061289 0.062858
vt 0.931010 0.631703
vt 0.749978 0.619519
vt 0.751274 0.223868
vt 0.912319 0.781079
vt 0.840895 0.254406
vt 0.893738 0.417264
vt 0.749978 0.602869
vt 0.909289 0.631556
vt 0.747082 0.151012
vt 0.893562 0.961643
vt 0.061289 0.077539
vt 0.895482 0.093612
vt 0.051444 0.177911
vt 0.939286 0.961643
vt 0.946022 0.961643
vt 0.041775 0.678018
vt 0.882280 0.672735
vt 0.041122 0.602869
vt 0.041122 0.619519
vt 0.872197 0.618399
vt 0.042419 0.223868
vt 0.042389 0.263619
vt 0.938583 0.858753
vt 0.914243 0.947380
vt 0.038226 0.112617
vt 0.038226 0.151012
vt 0.801158 0.254191
vt 0.061289 0.105769
vt 0.041775 0.963460
vt 0.051444 0.192592
vt 0.041122 0.654910
vt 0.760299 0.177911
vt 0.895489 0.132128
vt 0.770144 0.077539
vt 0.747082 0.112617
vt 0.770144 0.062858
vt 0.750630 0.678018
vt 0.910215 0.132134
vt 0.910331 0.456873
vt 0.893729 0.456861
vt 0.750630 0.963460
vt 0.770144 0.089119
vt 0.770144 0.105769
vt 0.945647 0.456888
vt 0.749978 0.654910
vt 0.945679 0.417261
vt 0.751304 0.587443
vt 0.770144 0.027469
vt 0.042389 0.587443
vt 0.751274 0.549046
vt 0.836650 0.963279
vt 0.796913 0.963048
vn 0.000000 0.000000 1.000000
vn 0.000000 0.000000 1.000000
vn 0.000000 0.000000 1.000000
vn 0.000000 0.000000 1.000000
vn 0.000000 1.000000 0.000000
vn 0.000000 1.000000 0.000000
vn 0.000000 1.000000 0.000000
vn 0.000000 1.000000 0.000000
vn 0.000000 0.000000 -1.000000
vn 0.000000 0.000000 -1.000000
vn 0.000000 0.000000 -1.000000
vn 0.000000 0.000000 -1.000000
vn -0.000000 -1.000000 0.000000
vn -0.000000 -1.000000 0.000000
vn -0.000000 -1.000000 0.000000
vn -0.000000 -1.000000 0.000000
vn 1.000000 0.000000 0.000000
vn 1.000000 0.000000 0.000000
vn 1.000000 0.000000 0.000000
vn 1.000000 0.000000 0.000000
vn -1.000000 0.000000 0.000000
vn -1.000000 0.000000 0.000000
vn -1.000000 0.000000 0.000000
vn -1.000000 0.000000 0.000000
vn -0.000000 -1.000000 0.000000
vn -0.000000 -1.000000 0.000000
vn 1.000000 0.000000 0.000000
vn 1.000000 0.000000 0.000000
vn 0.000000 1.000000 0.000000
vn 0.000000 1.000000 0.000000
vn 0.000000 1.000000 0.000000
vn 0.000000 1.000000 0.000000
vn -1.000000 0.000000 0.000000
vn -1.000000 0.000000 0.000000
vn 0.000000 1.000000 0.000000
vn 0.000000 1.000000 0.000000
vn 0.000000 1.000000 0.000000
vn 0.000000 1.000000 0.000000
vn 1.000000 0.000000 0.000000
vn 1.000000 0.000000 0.000000
vn -0.000000 -1.000000 0.000000
vn -0.000000 -1.000000 0.000000
vn -1.000000 0.000000 0.000000
vn -1.000000 0.000000 0.000000
vn 0.000000 0.000000 1.000000
vn 0.000000 0.000000 1.000000
vn 0.000000 0.000000 1.000000
vn 0.000000 0.000000 1.000000
vn 1.000000 0.000000 0.000000
vn 1.000000 0.000000 0.000000
vn 0.000000 0.000000 -1.000000
vn 0.000000 0.000000 -1.000000
vn -1.000000 0.000000 0.000000
vn -1.000000 0.000000 0.000000
vn 0.000000 0.000000 -1.000000
vn 0.000000 0.000000 -1.000000
vn 0.000000 0.000000 -1.000000
vn 0.000000 0.000000 -1.000000
vn -1.000000 0.000000 0.000000
vn -1.000000 0.000000 0.000000
vn 0.000000 0.000000 1.000000
vn 0.000000 0.000000 1.000000
vn 1.000000 0.000000 0.000000
vn 1.000000 0.000000 0.000000
s 1
g pCube2
usemtl initialShadingGroup
f 9/9/1 10/60/2 11/48/3 12/12/4
s off
f 3/28/5 4/49/6 6/53/7 5/41/8
s 2
f 13/31/9 14/14/10 15/57/11 16/43/12
s 3
f 7/34/13 8/8/14 2/62/15 1/1/16
s 4
f 2/2/17 8/58/18 6/6/19 4/50/20
s 5
f 7/7/21 1/36/22 3/3/23 5/32/24
s 3
f 1/1/16 2/62/15 10/59/25 9/61/26
s 4
f 2/2/17 4/50/20 11/11/27 10/10/28
s off
f 22/21/29 21/38/30 23/37/31 24/47/32
s 5
f 3/3/23 1/36/22 9/35/33 12/27/34
s off
f 17/17/35 18/63/36 19/64/37 20/39/38
s 4
f 6/6/19 8/58/18 15/56/39 14/51/40
s 3
f 8/8/14 7/34/13 16/33/41 15/15/42
s 5
f 7/7/21 5/32/24 13/13/43 16/16/44
s off
f 5/5/45 6/54/46 18/55/47 17/40/48
s 4
f 6/6/19 14/51/40 19/52/49 18/18/50
s 2
f 14/14/10 13/31/9 20/30/51 19/19/52
s 5
f 13/13/43 5/32/24 17/29/53 20/20/54
s off
f 4/4/55 3/42/56 21/25/57 22/44/58
s 5
f 3/3/23 12/27/34 23/26/59 21/22/60
s 1
f 12/12/4 11/48/3 24/46/61 23/23/62
s 4
f 11/11/27 4/50/20 22/45/63 24/24/64
