# This file uses centimeters as units for non-parametric coordinates.

mtllib CandyCane_LP_06-06_2.mtl
g default
v 0.031814 1.315958 -0.200868
v 0.053672 9.461903 -0.219129
v -0.181205 1.315958 -0.092329
v -0.176229 9.470306 -0.100723
v -0.143805 1.315958 0.143805
v -0.135865 9.468832 0.156878
v 0.092329 1.315958 0.181205
v 0.118982 9.459515 0.197679
v 0.200868 1.315958 -0.031814
v 0.236123 9.455233 -0.034707
v 2.296062 10.667116 -0.023180
v 2.385999 10.674652 -0.131886
v 2.520517 10.684522 -0.055139
v 2.496868 10.682228 0.090000
v 2.354143 10.672574 0.120759
v 0.034707 5.317060 -0.219129
v -0.197679 5.317060 -0.100722
v -0.156879 5.317060 0.156879
v 0.100722 5.317060 0.197679
v 0.219128 5.317060 -0.034707
v 0.023138 -0.017742 -0.146086
v -0.131786 -0.017742 -0.067148
v -0.104586 -0.017742 0.104586
v 0.067148 -0.017742 0.131786
v 0.146086 -0.017742 -0.023138
v 2.418403 10.573324 0.000112
v 0.110570 11.226822 -0.219129
v -0.111878 11.260441 -0.100724
v -0.072823 11.254539 0.156877
v 0.173762 11.217272 0.197679
v 0.287105 11.200142 -0.034707
v 0.390514 12.002726 -0.197330
v 0.214440 12.105526 -0.090702
v 0.245354 12.087478 0.141275
v 0.440533 11.973522 0.178020
v 0.530247 11.921144 -0.031251
v 1.449301 12.402682 -0.167375
v 1.500548 12.560060 -0.072523
v 1.492083 12.532145 0.133830
v 1.434483 12.358118 0.166517
v 1.409554 12.277306 -0.019641
v 2.273521 11.585250 -0.180038
v 2.434378 11.622608 -0.085186
v 2.406259 11.615338 0.121167
v 2.227770 11.574987 0.153853
v 2.146091 11.554380 -0.032304
v 0.835675 12.331882 -0.168230
v 0.790227 12.483383 -0.073378
v 0.798417 12.456661 0.132976
v 0.848483 12.288904 0.165662
v 0.872107 12.211441 -0.020495
v 2.357922 10.983070 -0.175701
v 2.532215 10.995852 -0.076362
v 2.501594 10.992868 0.122290
v 2.313495 10.980164 0.159972
v 2.233069 10.972662 -0.029642
v 1.949347 12.134119 -0.184711
v 2.081869 12.228279 -0.089858
v 2.058979 12.211146 0.116494
v 1.911518 12.107668 0.149181
v 1.844839 12.058364 -0.036976
vt 0.383761 0.288887
vt 0.402098 0.289582
vt 0.420480 0.289889
vt 0.438850 0.289732
vt 0.365422 0.287956
vt 0.332103 0.026125
vt 0.335572 0.029053
vt 0.340774 0.026502
vt 0.341433 0.020838
vt 0.335215 0.021345
vt 0.357108 0.013032
vt 0.382696 0.703831
vt 0.400364 0.703274
vt 0.418485 0.703297
vt 0.436017 0.703842
vt 0.364745 0.704485
vt 0.386912 0.761502
vt 0.401804 0.759766
vt 0.417742 0.760044
vt 0.432482 0.761658
vt 0.371486 0.763492
vt 0.391326 0.843139
vt 0.404002 0.844272
vt 0.418464 0.843567
vt 0.430545 0.841460
vt 0.377829 0.841529
vt 0.392893 0.927121
vt 0.406243 0.927720
vt 0.421226 0.927020
vt 0.434129 0.925311
vt 0.448822 0.924228
vt 0.390361 0.799835
vt 0.402849 0.800744
vt 0.417841 0.800334
vt 0.429725 0.798926
vt 0.377073 0.799202
vt 0.394893 0.969673
vt 0.408396 0.967645
vt 0.421979 0.967068
vt 0.434944 0.967970
vt 0.382472 0.973511
vt 0.392153 0.882563
vt 0.404983 0.884280
vt 0.419712 0.883461
vt 0.431881 0.880531
vt 0.378734 0.880562
vt 0.329803 0.029352
vt 0.381863 0.579912
vt 0.344662 0.029898
vt 0.400064 0.580454
vt 0.349301 0.016289
vt 0.418465 0.580418
vt 0.337810 0.007814
vt 0.436623 0.579950
vt 0.325846 0.015478
vt 0.363669 0.579184
vt 0.433524 0.994918
vt 0.403680 0.989441
vt 0.412007 0.986284
vt 0.419832 0.986248
vt 0.427782 0.988374
vt 0.378684 0.926713
vt 0.446115 0.878568
vt 0.444612 0.840050
vt 0.357258 0.020524
vt 0.448474 0.971295
vt 0.443858 0.798050
vt 0.448480 0.762883
vt 0.454174 0.704292
vt 0.454880 0.579428
vt 0.379182 0.005479
vt 0.457154 0.289148
vt 0.450535 0.005541
vt 0.394272 0.010946
vt 0.434037 0.007670
vt 0.420607 0.012717
vt 0.407074 0.013584
vt 0.398870 0.995873
vt 0.349586 0.016196
vt 0.365036 0.014891
vt 0.361412 0.006572
vt 0.352251 0.006999
vn 0.155642 -0.002495 -0.987810
vn 0.148491 -0.001472 -0.988913
vn 0.987647 -0.011844 -0.156247
vn 0.987717 -0.004424 -0.156191
vn 0.156422 -0.012493 -0.987611
vn -0.890937 -0.012493 -0.453955
vn -0.891785 0.000115 -0.452459
vn -0.894962 0.012655 -0.445964
vn -0.707052 -0.012493 0.707052
vn -0.708739 -0.000355 0.705471
vn -0.715877 0.010135 0.698152
vn 0.453955 -0.012493 0.890937
vn 0.454019 -0.003202 0.890986
vn 0.450170 -0.005305 0.892927
vn 0.987611 -0.012493 -0.156422
vn 0.153973 -0.176701 -0.972147
vn 0.972147 -0.176701 -0.153973
vn -0.876986 -0.176701 -0.446847
vn -0.695980 -0.176701 0.695980
vn 0.446847 -0.176701 0.876986
vn 0.075159 -0.997171 -0.001395
vn -0.949616 -0.286656 -0.126723
vn -0.129422 -0.242877 -0.961385
vn 0.890816 -0.154856 -0.427162
vn 0.727476 -0.169692 0.664818
vn -0.459727 -0.265471 0.847453
vn 0.096568 -0.000178 -0.995326
vn -0.898595 0.127873 -0.419733
vn -0.738344 0.107783 0.665755
vn 0.407874 -0.041280 0.912104
vn 0.979657 -0.117160 -0.162928
vn -0.760722 0.528708 -0.376525
vn 0.046578 0.035740 -0.998275
vn -0.645864 0.461582 0.608113
vn 0.322161 -0.155740 0.933787
vn 0.851593 -0.495634 -0.170694
vn 0.184280 0.925574 -0.330685
vn -0.017901 0.007163 -0.999814
vn 0.020468 0.005539 -0.999775
vn -0.314872 0.886662 -0.338653
vn 0.163836 0.808970 0.564558
vn -0.279801 0.774367 0.567510
vn -0.053349 -0.367456 0.928509
vn 0.142619 -0.339652 0.929675
vn -0.152385 -0.976637 -0.151524
vn 0.385507 -0.909398 -0.156142
vn 0.871253 0.309047 -0.381324
vn -0.063828 -0.023026 -0.997695
vn -0.040161 -0.001800 -0.999192
vn 0.666599 0.653799 -0.358040
vn 0.738219 0.272510 0.617066
vn 0.580602 0.573144 0.578280
vn -0.396207 -0.129880 0.908929
vn -0.269274 -0.276412 0.922544
vn -0.928991 -0.338638 -0.149329
vn -0.683174 -0.711918 -0.162625
vn -0.126066 -0.063554 -0.989984
vn -0.977761 -0.159798 -0.135823
vn 0.906888 0.074857 -0.414669
vn 0.747743 0.060524 0.661224
vn -0.462093 -0.096080 0.881611
s 1
g pCylinder1
usemtl initialShadingGroup
f 16/1/1 2/48/2 10/56/3 20/5/4
f 16/1/1 1/74/5 3/77/6 17/2/7
f 16/1/1 17/2/7 4/50/8 2/48/2
f 17/2/7 3/77/6 5/76/9 18/3/10
f 17/2/7 18/3/10 6/52/11 4/50/8
f 18/3/10 5/76/9 7/75/12 19/4/13
f 18/3/10 19/4/13 8/54/14 6/52/11
f 19/4/13 7/75/12 9/73/15 20/72/4
f 19/4/13 20/72/4 10/70/3 8/54/14
f 16/1/1 20/5/4 9/71/15 1/74/5
f 21/6/16 1/47/5 9/55/15 25/10/17
f 21/6/16 22/7/18 3/49/6 1/47/5
f 22/7/18 23/8/19 5/51/9 3/49/6
f 23/8/19 24/9/20 7/53/12 5/51/9
f 24/9/20 25/10/17 9/55/15 7/53/12
f 24/9/20 23/8/19 22/7/18 21/6/16 25/10/17
f 26/11/21 11/65/22 12/79/23
f 26/11/21 12/79/23 13/82/24
f 26/11/21 13/82/24 14/81/25
f 26/11/21 14/81/25 15/80/26
f 26/11/21 15/80/26 11/65/22
f 27/12/27 2/48/2 4/50/8 28/13/28
f 28/13/28 4/50/8 6/52/11 29/14/29
f 29/14/29 6/52/11 8/54/14 30/15/30
f 30/15/30 8/54/14 10/70/3 31/69/31
f 27/12/27 31/16/31 10/56/3 2/48/2
f 28/13/28 33/18/32 32/17/33 27/12/27
f 29/14/29 34/19/34 33/18/32 28/13/28
f 30/15/30 35/20/35 34/19/34 29/14/29
f 31/69/31 36/68/36 35/20/35 30/15/30
f 27/12/27 32/17/33 36/21/36 31/16/31
f 38/23/37 37/22/38 47/32/39 48/33/40
f 39/24/41 38/23/37 48/33/40 49/34/42
f 40/25/43 39/24/41 49/34/42 50/35/44
f 41/64/45 40/25/43 50/35/44 51/67/46
f 37/22/38 41/26/45 51/36/46 47/32/39
f 43/28/47 42/27/48 57/42/49 58/43/50
f 44/29/51 43/28/47 58/43/50 59/44/52
f 45/30/53 44/29/51 59/44/52 60/45/54
f 46/31/55 45/30/53 60/45/54 61/63/56
f 42/27/48 46/62/55 61/46/56 57/42/49
f 33/18/32 48/33/40 47/32/39 32/17/33
f 34/19/34 49/34/42 48/33/40 33/18/32
f 35/20/35 50/35/44 49/34/42 34/19/34
f 36/68/36 51/67/46 50/35/44 35/20/35
f 32/17/33 47/32/39 51/36/46 36/21/36
f 52/37/57 12/58/23 11/78/22 56/41/58
f 43/28/47 53/38/59 52/37/57 42/27/48
f 52/37/57 53/38/59 13/59/24 12/58/23
f 44/29/51 54/39/60 53/38/59 43/28/47
f 53/38/59 54/39/60 14/60/25 13/59/24
f 45/30/53 55/40/61 54/39/60 44/29/51
f 54/39/60 55/40/61 15/61/26 14/60/25
f 46/31/55 56/66/58 55/40/61 45/30/53
f 55/40/61 56/66/58 11/57/22 15/61/26
f 42/27/48 52/37/57 56/41/58 46/62/55
f 38/23/37 58/43/50 57/42/49 37/22/38
f 39/24/41 59/44/52 58/43/50 38/23/37
f 40/25/43 60/45/54 59/44/52 39/24/41
f 41/64/45 61/63/56 60/45/54 40/25/43
f 37/22/38 57/42/49 61/46/56 41/26/45
