# This file uses centimeters as units for non-parametric coordinates.

mtllib Pellet_v1_UVd_06-12.mtl
g default
v -0.000000 0.573364 -0.000000
v -0.000000 1.426636 -0.000000
v 0.268937 1.000000 0.845700
v 0.870299 1.000000 -0.000000
v 0.217575 1.248704 -0.684186
v -0.569618 1.248704 -0.422850
v -0.569618 1.248704 0.422850
v 0.217575 1.248704 0.684185
v 0.704087 1.248704 -0.000000
v 0.083106 1.402411 -0.261336
v -0.217575 1.402411 -0.161514
v -0.217575 1.402411 0.161514
v 0.083106 1.402411 0.261336
v 0.268937 1.402411 -0.000000
v 0.024106 0.574682 -0.075804
v -0.063111 0.574682 -0.046850
v -0.063111 0.574682 0.046850
v 0.024106 0.574682 0.075804
v 0.078009 0.574682 -0.000000
v 0.024106 1.425318 -0.075804
v -0.063111 1.425318 -0.046850
v -0.063111 1.425318 0.046850
v 0.024106 1.425318 0.075804
v 0.078009 1.425318 -0.000000
v 0.083106 0.597589 -0.261336
v -0.217575 0.597589 -0.161514
v -0.217575 0.597589 0.161514
v 0.083106 0.597589 0.261336
v 0.268937 0.597589 -0.000000
v 0.217575 0.751296 -0.684186
v -0.569618 0.751296 -0.422850
v -0.569618 0.751296 0.422850
v 0.217575 0.751296 0.684186
v 0.704087 0.751296 -0.000000
v 0.268937 1.000000 -0.845700
v -0.704087 1.000000 -0.522671
v -0.704087 1.000000 0.522671
v -0.081274 0.597589 -0.255574
v -0.263008 0.597589 -0.000000
v -0.081274 0.597589 0.255574
v 0.212778 0.597589 0.157954
v 0.212778 0.597589 -0.157954
v -0.212778 0.751296 -0.669103
v -0.688565 0.751296 -0.000000
v -0.212778 0.751296 0.669102
v 0.557060 0.751296 0.413528
v 0.557061 0.751296 -0.413528
v -0.263008 1.000000 -0.827056
v -0.851113 1.000000 -0.000000
v -0.263008 1.000000 0.827056
v 0.688565 1.000000 0.511149
v 0.688565 1.000000 -0.511149
v -0.212778 1.248704 -0.669103
v -0.688565 1.248704 -0.000000
v -0.212778 1.248704 0.669102
v 0.557060 1.248704 0.413528
v 0.557060 1.248704 -0.413528
v -0.081274 1.402411 -0.255574
v -0.263008 1.402411 -0.000000
v -0.081274 1.402411 0.255574
v 0.212778 1.402411 0.157954
v 0.212778 1.402411 -0.157954
v -0.027771 0.575122 -0.087329
v -0.089869 0.575122 -0.000000
v -0.027771 0.575122 0.087329
v 0.072705 0.575122 0.053972
v 0.072705 0.575122 -0.053972
v -0.027771 1.424878 -0.087329
v -0.089869 1.424878 -0.000000
v -0.027771 1.424878 0.087329
v 0.072705 1.424878 0.053972
v 0.072705 1.424878 -0.053972
vt 0.672132 0.658012
vt 0.698399 0.647553
vt 0.697515 0.681525
vt 0.688758 0.682195
vt 0.652962 0.678793
vt 0.684998 0.690131
vt 0.654791 0.707006
vt 0.682929 0.698666
vt 0.668631 0.731660
vt 0.689314 0.704695
vt 0.696029 0.738638
vt 0.696792 0.709300
vt 0.723753 0.733094
vt 0.704500 0.705090
vt 0.738856 0.709193
vt 0.711190 0.699401
vt 0.742150 0.681113
vt 0.709568 0.690771
vt 0.724087 0.659363
vt 0.706225 0.682650
vt 0.560824 0.646183
vt 0.619647 0.581674
vt 0.609145 0.809211
vt 0.565971 0.733333
vt 0.779126 0.813633
vt 0.693620 0.831247
vt 0.835859 0.653338
vt 0.826188 0.740102
vt 0.700940 0.549848
vt 0.780470 0.585857
vt 0.459928 0.610474
vt 0.547370 0.164679
vt 0.544005 0.894134
vt 0.522253 0.467828
vt 0.839763 0.901828
vt 0.226179 0.537618
vt 0.938475 0.622922
vt 0.068313 0.277601
vt 0.423457 0.066853
vt 0.266820 0.047112
vt 0.470336 0.310911
vt 0.443165 0.227946
vt 0.359372 0.439753
vt 0.429881 0.388274
vt 0.202547 0.374034
vt 0.273295 0.425184
vt 0.216588 0.204576
vt 0.189804 0.287668
vt 0.382091 0.165564
vt 0.294789 0.165768
vt 0.372932 0.302841
vt 0.363978 0.276024
vt 0.336948 0.344622
vt 0.359686 0.327819
vt 0.286093 0.323310
vt 0.309100 0.339743
vt 0.290646 0.268358
vt 0.282127 0.295317
vt 0.344315 0.255708
vt 0.316044 0.255937
vt 0.697179 0.694443
vt 0.326187 0.298968
vt 0.331181 0.287050
vt 0.338892 0.291254
vt 0.339064 0.300035
vt 0.337449 0.308667
vt 0.329152 0.311545
vt 0.320443 0.312676
vt 0.315142 0.305674
vt 0.311375 0.297741
vt 0.316396 0.290535
vt 0.322777 0.284501
vt 0.703724 0.442856
vt 0.854665 0.489129
vt 0.135490 0.134731
vt 0.941110 0.780776
vt 0.111060 0.429579
vt 0.690450 0.953113
vt 0.383928 0.543927
vt 0.449090 0.767977
vt 0.577000 0.319749
vt 0.550580 0.481219
vn -0.098915 -0.949443 -0.297949
vn 0.097479 -0.950938 -0.293625
vn 0.032950 -0.994517 -0.099252
vn -0.034944 -0.993831 -0.105259
vn -0.254905 -0.949826 -0.181258
vn -0.086253 -0.994384 -0.061333
vn -0.319471 -0.947596 -0.000000
vn -0.113054 -0.993589 0.000000
vn -0.254905 -0.949826 0.181258
vn -0.086253 -0.994384 0.061333
vn -0.098915 -0.949443 0.297950
vn -0.034944 -0.993831 0.105259
vn 0.097479 -0.950937 0.293625
vn 0.032950 -0.994517 0.099252
vn 0.258650 -0.948300 0.183921
vn 0.091472 -0.993681 0.065044
vn 0.314852 -0.949141 0.000000
vn 0.106606 -0.994301 0.000000
vn 0.258650 -0.948300 -0.183921
vn 0.091472 -0.993681 -0.065044
vn -0.527326 -0.762445 -0.374972
vn -0.203102 -0.764508 -0.611782
vn -0.527326 -0.762445 0.374972
vn -0.651911 -0.758296 -0.000000
vn 0.202436 -0.766287 0.609774
vn -0.203102 -0.764508 0.611782
vn 0.649806 -0.760100 0.000000
vn 0.529045 -0.760651 0.376194
vn 0.202436 -0.766287 -0.609774
vn 0.529045 -0.760651 -0.376194
vn -0.814967 0.000000 -0.579508
vn -0.315075 0.000000 -0.949067
vn -0.814967 0.000000 0.579508
vn -1.000000 0.000000 -0.000000
vn 0.315075 0.000000 0.949067
vn -0.315075 0.000000 0.949067
vn 1.000000 0.000000 0.000000
vn 0.814967 0.000000 0.579508
vn 0.315075 0.000000 -0.949067
vn 0.814967 0.000000 -0.579508
vn -0.527326 0.762445 -0.374972
vn -0.203102 0.764508 -0.611782
vn -0.527326 0.762445 0.374972
vn -0.651911 0.758296 -0.000000
vn 0.202436 0.766287 0.609774
vn -0.203102 0.764508 0.611782
vn 0.649806 0.760100 0.000000
vn 0.529045 0.760650 0.376194
vn 0.202436 0.766287 -0.609774
vn 0.529045 0.760651 -0.376194
vn -0.254905 0.949826 -0.181258
vn -0.098915 0.949443 -0.297949
vn -0.254905 0.949826 0.181258
vn -0.319471 0.947596 -0.000000
vn 0.097479 0.950937 0.293625
vn -0.098915 0.949443 0.297950
vn 0.314852 0.949141 0.000000
vn 0.258650 0.948300 0.183921
vn 0.097479 0.950938 -0.293625
vn 0.258650 0.948300 -0.183921
vn -0.000000 -1.000000 0.000000
vn -0.000000 1.000000 -0.000000
vn 0.032950 0.994517 -0.099252
vn -0.034944 0.993831 -0.105258
vn -0.086253 0.994384 -0.061333
vn -0.113054 0.993589 0.000000
vn -0.086253 0.994384 0.061333
vn -0.034944 0.993831 0.105259
vn 0.032950 0.994517 0.099252
vn 0.091471 0.993681 0.065044
vn 0.106606 0.994301 0.000000
vn 0.091471 0.993681 -0.065044
s 1
g pSphere3
usemtl initialShadingGroup
f 38/1/1 25/2/2 15/3/3 63/4/4
f 26/5/5 38/1/1 63/4/4 16/6/6
f 39/7/7 26/5/5 16/6/6 64/8/8
f 27/9/9 39/7/7 64/8/8 17/10/10
f 40/11/11 27/9/9 17/10/10 65/12/12
f 28/13/13 40/11/11 65/12/12 18/14/14
f 41/15/15 28/13/13 18/14/14 66/16/16
f 29/17/17 41/15/15 66/16/16 19/18/18
f 42/19/19 29/17/17 19/18/18 67/20/20
f 25/2/2 42/19/19 67/20/20 15/3/3
f 38/1/1 26/5/5 31/21/21 43/22/22
f 39/7/7 27/9/9 32/23/23 44/24/24
f 40/11/11 28/13/13 33/25/25 45/26/26
f 41/15/15 29/17/17 34/27/27 46/28/28
f 42/19/19 25/2/2 30/29/29 47/30/30
f 38/1/1 43/22/22 30/29/29 25/2/2
f 39/7/7 44/24/24 31/21/21 26/5/5
f 40/11/11 45/26/26 32/23/23 27/9/9
f 41/15/15 46/28/28 33/25/25 28/13/13
f 42/19/19 47/30/30 34/27/27 29/17/17
f 43/22/22 31/21/21 36/31/31 48/82/32
f 44/24/24 32/23/23 37/33/33 49/80/34
f 45/26/26 33/25/25 3/35/35 50/78/36
f 46/28/28 34/27/27 4/37/37 51/76/38
f 47/30/30 30/29/29 35/73/39 52/74/40
f 43/22/22 48/82/32 35/73/39 30/29/29
f 44/24/24 49/80/34 36/31/31 31/21/21
f 45/26/26 50/78/36 37/33/33 32/23/23
f 46/28/28 51/76/38 3/35/35 33/25/25
f 47/30/30 52/74/40 4/37/37 34/27/27
f 48/32/32 36/81/31 6/41/41 53/42/42
f 49/34/34 37/79/33 7/43/43 54/44/44
f 50/36/36 3/77/35 8/45/45 55/46/46
f 51/38/38 4/75/37 9/47/47 56/48/48
f 52/40/40 35/39/39 5/49/49 57/50/50
f 48/32/32 53/42/42 5/49/49 35/39/39
f 49/34/34 54/44/44 6/41/41 36/81/31
f 50/36/36 55/46/46 7/43/43 37/79/33
f 51/38/38 56/48/48 8/45/45 3/77/35
f 52/40/40 57/50/50 9/47/47 4/75/37
f 53/42/42 6/41/41 11/51/51 58/52/52
f 54/44/44 7/43/43 12/53/53 59/54/54
f 55/46/46 8/45/45 13/55/55 60/56/56
f 56/48/48 9/47/47 14/57/57 61/58/58
f 57/50/50 5/49/49 10/59/59 62/60/60
f 53/42/42 58/52/52 10/59/59 5/49/49
f 54/44/44 59/54/54 11/51/51 6/41/41
f 55/46/46 60/56/56 12/53/53 7/43/43
f 56/48/48 61/58/58 13/55/55 8/45/45
f 57/50/50 62/60/60 14/57/57 9/47/47
f 1/61/61 16/6/6 63/4/4 15/3/3
f 1/61/61 17/10/10 64/8/8 16/6/6
f 1/61/61 18/14/14 65/12/12 17/10/10
f 1/61/61 19/18/18 66/16/16 18/14/14
f 1/61/61 15/3/3 67/20/20 19/18/18
f 2/62/62 20/63/63 68/64/64 21/65/65
f 58/52/52 68/64/64 20/63/63 10/59/59
f 11/51/51 21/65/65 68/64/64 58/52/52
f 2/62/62 21/65/65 69/66/66 22/67/67
f 59/54/54 69/66/66 21/65/65 11/51/51
f 12/53/53 22/67/67 69/66/66 59/54/54
f 2/62/62 22/67/67 70/68/68 23/69/69
f 60/56/56 70/68/68 22/67/67 12/53/53
f 13/55/55 23/69/69 70/68/68 60/56/56
f 2/62/62 23/69/69 71/70/70 24/71/71
f 61/58/58 71/70/70 23/69/69 13/55/55
f 14/57/57 24/71/71 71/70/70 61/58/58
f 2/62/62 24/71/71 72/72/72 20/63/63
f 62/60/60 72/72/72 24/71/71 14/57/57
f 10/59/59 20/63/63 72/72/72 62/60/60
